<svg xmlns="http://www.w3.org/2000/svg" width="152.201" height="38.838" viewBox="0 0 152.201 38.838">
  <g id="Group_6" data-name="Group 6" transform="translate(-312.315 -743.254)">
    <g id="Group_3" data-name="Group 3" transform="translate(353.879 750.502)">
      <g id="Group_1" data-name="Group 1" transform="translate(0 0)">
        <path id="Path_1" data-name="Path 1" d="M420.456,782.717q-1.516.065-2.644.129t-2.032.129q.161-2.192.29-5.079t.129-5.918q0-2.129-.048-4t-.145-3.289q-.388-.031-.742-.048t-.774-.017q-.452,0-1.064.033t-1.322.064q-.71.032-1.435.081t-1.371.081a6.431,6.431,0,0,0,.355-1.209,5.194,5.194,0,0,0,.064-.726,5.126,5.126,0,0,0-.032-.612,4.652,4.652,0,0,1-.032-.581v-1q1.806.065,3.822.1t3.822.032q2.192,0,4.643-.048t4.773-.145q-.1.9-.129,1.661t-.032,1.177c0,.107,0,.225.016.354s.016.258.016.387v.645q-1.355-.161-2.484-.242t-2.1-.081q-1,0-2,.1-.1,1.257-.145,3.015t-.048,3.692q0,3.225.145,5.966T420.456,782.717Z" transform="translate(-409.298 -760.466)" fill="#2c3a56"/>
        <path id="Path_2" data-name="Path 2" d="M472.947,771.667q0,11.288-9.449,11.287a13.313,13.313,0,0,1-4.612-.677,6.2,6.2,0,0,1-2.854-2.064,8.408,8.408,0,0,1-1.467-3.451,24.744,24.744,0,0,1-.419-4.869q0-11.352,9.868-11.352a10.528,10.528,0,0,1,4.37.789,6.535,6.535,0,0,1,2.725,2.242,9.246,9.246,0,0,1,1.4,3.5A25.621,25.621,0,0,1,472.947,771.667Zm-14.9.581a15.462,15.462,0,0,0,.274,3.16,4.93,4.93,0,0,0,.9,2.08,3.433,3.433,0,0,0,1.645,1.129,7.843,7.843,0,0,0,2.467.339,6.609,6.609,0,0,0,2.741-.5,4.05,4.05,0,0,0,1.725-1.435,6.119,6.119,0,0,0,.887-2.289,16.716,16.716,0,0,0,.258-3.1,18.928,18.928,0,0,0-.21-2.919,6.349,6.349,0,0,0-.79-2.306,4.087,4.087,0,0,0-1.6-1.515,5.593,5.593,0,0,0-2.661-.549,4.916,4.916,0,0,0-4.257,1.9Q458.048,768.152,458.048,772.247Z" transform="translate(-434.926 -760.38)" fill="#2c3a56"/>
        <path id="Path_3" data-name="Path 3" d="M513.872,782q-.484-1.612-1.209-3.483t-1.548-3.789q-.822-1.918-1.661-3.789t-1.613-3.515q-.032,1.258-.064,2.37t-.032,2.371q0,2.742.129,5.321t.42,5.1c-.108,0-.264-.011-.468-.032s-.414-.037-.629-.048l-.645-.033c-.215-.01-.387-.016-.516-.016a8.606,8.606,0,0,0-.871.049q-.484.048-.871.048h-.484q.258-4.031.452-8.062t.193-7.74q0-1.515-.016-3.224t-.081-3.128a5.456,5.456,0,0,1,.645.032,3.552,3.552,0,0,0,.419.033l3.935-.065q1.258,3.9,2.886,7.724t3.822,8.175q.9-1.774,1.725-3.6t1.613-3.773q.789-1.951,1.532-4.064t1.483-4.466a5.847,5.847,0,0,0,1.193-.113,7.54,7.54,0,0,1,1.452-.112q.418,0,.984.048t1.274.177q-.1,3.031-.146,5.643t-.048,4.547q0,3.419.145,6.385t.5,5.579H527c-.172,0-.345,0-.516-.016s-.355-.016-.549-.016h-1q-.355,0-.9.016c-.366.011-.667.016-.9.016q.129-3.128.193-5.789t.065-4.5v-4.1a1.07,1.07,0,0,0-.033-.258q-2,4.064-3.418,7.5a69.022,69.022,0,0,0-2.419,6.821,2.878,2.878,0,0,1-.9.306,5.552,5.552,0,0,1-.677.048,5.643,5.643,0,0,1-.822-.064,4.7,4.7,0,0,1-.951-.258Z" transform="translate(-463.305 -760.165)" fill="#2c3a56"/>
        <path id="Path_4" data-name="Path 4" d="M570.352,761.142a15.608,15.608,0,0,0,2.08.065,8.859,8.859,0,0,1,2.08.161q1.612,5.354,3.58,10.674t4.354,11.062c-.129,0-.312,0-.548-.016s-.489-.027-.758-.048-.532-.038-.79-.049-.473-.016-.645-.016q-.677,0-1.273.048t-1.113.049q-.42-1.806-.838-3.177t-.9-2.6q-.742-.065-1.4-.113t-1.629-.048q-.645,0-1.548.048t-2.161.145q-.677,1.806-1.048,3.193a25.5,25.5,0,0,0-.564,2.612q-.806-.1-1.516-.129t-1.161-.032q-.483,0-1.048.048c-.377.033-.758.049-1.145.049q1.515-3.774,2.774-6.95t2.241-5.853q.983-2.677,1.741-4.934T570.352,761.142Zm4.225,12.545q-.483-1.87-1.048-3.629t-1.242-3.434q-.387,1.225-.726,2.193t-.629,1.806q-.29.839-.532,1.58t-.435,1.484Z" transform="translate(-496.759 -760.723)" fill="#2c3a56"/>
        <path id="Path_5" data-name="Path 5" d="M621.371,782.717q-1.517.065-2.645.129t-2.032.129q.161-2.192.291-5.079t.129-5.918q0-2.129-.048-4t-.145-3.289q-.387-.031-.742-.048t-.774-.017q-.452,0-1.064.033t-1.322.064q-.71.032-1.435.081t-1.371.081a6.429,6.429,0,0,0,.355-1.209,5.209,5.209,0,0,0,.065-.726,5.041,5.041,0,0,0-.033-.612,4.652,4.652,0,0,1-.032-.581v-1q1.806.065,3.821.1t3.822.032q2.193,0,4.644-.048t4.773-.145q-.1.9-.129,1.661t-.032,1.177q0,.161.016.354t.016.387v.645q-1.355-.161-2.484-.242t-2.1-.081q-1,0-2,.1-.1,1.257-.145,3.015t-.048,3.692q0,3.225.145,5.966T621.371,782.717Z" transform="translate(-524.107 -760.466)" fill="#2c3a56"/>
        <path id="Path_6" data-name="Path 6" d="M659.4,760.949q-.226,2.612-.339,5.112t-.113,5.337q0,3.322.226,6.208t.613,5.6a22.735,22.735,0,0,0-2.741-.387q-.549,0-2.29.193.354-2.193.532-4.612t.178-5.353q0-2.935-.113-5.918t-.435-6.015a8.412,8.412,0,0,1,1.58-.193h2.516A1.5,1.5,0,0,1,659.4,760.949Z" transform="translate(-549.563 -760.595)" fill="#2c3a56"/>
      </g>
      <g id="Group_2" data-name="Group 2" transform="translate(88.361 24.23)">
        <path id="Path_7" data-name="Path 7" d="M616.215,831.929a.754.754,0,0,1-.519-.195.689.689,0,0,1-.219-.543.705.705,0,0,1,.209-.51.693.693,0,0,1,.515-.213.717.717,0,0,1,.522.211.749.749,0,0,1,0,1.053A.728.728,0,0,1,616.215,831.929Z" transform="translate(-615.477 -824.569)" fill="#2c3a56"/>
        <path id="Path_8" data-name="Path 8" d="M626.5,823.136l-.34-.894h-2.894l-.34.913a3.17,3.17,0,0,1-.34.721.54.54,0,0,1-.461.187.675.675,0,0,1-.48-.2.61.61,0,0,1-.209-.452,1,1,0,0,1,.049-.3q.048-.156.16-.432l1.821-4.623.187-.478a2.415,2.415,0,0,1,.233-.464.958.958,0,0,1,.325-.3,1,1,0,0,1,.5-.114,1.015,1.015,0,0,1,.5.114.979.979,0,0,1,.325.294,2.1,2.1,0,0,1,.209.386c.057.138.129.322.216.552l1.86,4.593a2.31,2.31,0,0,1,.219.762.628.628,0,0,1-.206.453.68.68,0,0,1-.5.207.639.639,0,0,1-.291-.061.584.584,0,0,1-.2-.165,1.483,1.483,0,0,1-.177-.321C626.6,823.374,626.545,823.246,626.5,823.136Zm-2.855-1.976h2.127l-1.073-2.937Z" transform="translate(-618.882 -816.703)" fill="#2c3a56"/>
        <path id="Path_9" data-name="Path 9" d="M642.077,821.331h-1.32v2.015a.941.941,0,0,1-.2.655.667.667,0,0,1-.515.224.675.675,0,0,1-.525-.221.942.942,0,0,1-.2-.648V817.87a.9.9,0,0,1,.219-.68.992.992,0,0,1,.694-.2h1.85a4.859,4.859,0,0,1,1.263.126,1.88,1.88,0,0,1,.755.4,1.817,1.817,0,0,1,.483.689,2.436,2.436,0,0,1,.165.918,2.029,2.029,0,0,1-.67,1.649A3.05,3.05,0,0,1,642.077,821.331Zm-.35-3.263h-.971v2.175h.971a2.892,2.892,0,0,0,.852-.107,1,1,0,0,0,.522-.349,1.045,1.045,0,0,0,.18-.636,1.079,1.079,0,0,0-.277-.767A1.845,1.845,0,0,0,641.727,818.069Z" transform="translate(-629.098 -816.865)" fill="#2c3a56"/>
        <path id="Path_10" data-name="Path 10" d="M657.552,821.331h-1.321v2.015a.939.939,0,0,1-.2.655.666.666,0,0,1-.515.224.674.674,0,0,1-.524-.221.939.939,0,0,1-.2-.648V817.87a.9.9,0,0,1,.219-.68.993.993,0,0,1,.694-.2h1.85a4.852,4.852,0,0,1,1.262.126,1.882,1.882,0,0,1,.755.4,1.817,1.817,0,0,1,.483.689,2.428,2.428,0,0,1,.165.918,2.03,2.03,0,0,1-.67,1.649A3.05,3.05,0,0,1,657.552,821.331Zm-.35-3.263h-.971v2.175h.971a2.887,2.887,0,0,0,.852-.107.992.992,0,0,0,.522-.349,1.042,1.042,0,0,0,.18-.636,1.078,1.078,0,0,0-.276-.767A1.845,1.845,0,0,0,657.2,818.069Z" transform="translate(-637.941 -816.865)" fill="#2c3a56"/>
      </g>
    </g>
    <g id="Group_5" data-name="Group 5" transform="translate(312.315 743.254)">
      <g id="Group_4" data-name="Group 4" transform="translate(4.976 6.919)">
        <path id="Path_11" data-name="Path 11" d="M374.452,782.824a.1.1,0,0,0,.017.146c.5.326,2.91,1.793,4.482,1.006,1.322-.661,1.167-1.554.81-2.181a1.539,1.539,0,0,0-1.2-.787A5.514,5.514,0,0,0,374.452,782.824Z" transform="translate(-352.784 -771.742)" fill="#2c3a56"/>
        <path id="Path_12" data-name="Path 12" d="M372.824,794.54a.085.085,0,0,0-.04.123c.285.446,1.682,2.506,3.234,2.45,1.3-.047,1.507-.821,1.449-1.456a1.361,1.361,0,0,0-.678-1.073A4.869,4.869,0,0,0,372.824,794.54Z" transform="translate(-351.838 -779.254)" fill="#2c3a56"/>
        <path id="Path_13" data-name="Path 13" d="M372.258,771.485a.084.084,0,0,0,.061.114c.519.1,2.973.525,4.008-.633.87-.973.453-1.656-.045-2.054a1.36,1.36,0,0,0-1.243-.255A4.868,4.868,0,0,0,372.258,771.485Z" transform="translate(-351.541 -764.658)" fill="#2c3a56"/>
        <path id="Path_14" data-name="Path 14" d="M367.734,802.605a.076.076,0,0,0-.068.093c.118.458.737,2.6,2.071,2.979,1.122.321,1.509-.282,1.635-.837a1.216,1.216,0,0,0-.279-1.1A4.354,4.354,0,0,0,367.734,802.605Z" transform="translate(-348.919 -784.082)" fill="#2c3a56"/>
        <path id="Path_15" data-name="Path 15" d="M367.079,763.021a.076.076,0,0,0,.092.07c.461-.107,2.615-.671,3.03-2,.349-1.114-.243-1.515-.8-1.656a1.217,1.217,0,0,0-1.107.252A4.354,4.354,0,0,0,367.079,763.021Z" transform="translate(-348.582 -759.4)" fill="#2c3a56"/>
        <path id="Path_16" data-name="Path 16" d="M329.486,783.32a.1.1,0,0,1-.017.146c-.5.326-2.91,1.792-4.482,1.006-1.322-.661-1.167-1.554-.81-2.181a1.54,1.54,0,0,1,1.2-.787A5.513,5.513,0,0,1,329.486,783.32Z" transform="translate(-323.927 -772.025)" fill="#2c3a56"/>
        <path id="Path_17" data-name="Path 17" d="M332.288,795.036a.084.084,0,0,1,.039.123c-.284.447-1.682,2.507-3.234,2.451-1.3-.047-1.507-.822-1.449-1.456a1.36,1.36,0,0,1,.678-1.073A4.87,4.87,0,0,1,332.288,795.036Z" transform="translate(-326.046 -779.538)" fill="#2c3a56"/>
        <path id="Path_18" data-name="Path 18" d="M333.02,771.981a.084.084,0,0,1-.061.114c-.519.1-2.973.525-4.008-.633-.87-.973-.453-1.656.045-2.054a1.36,1.36,0,0,1,1.243-.255A4.868,4.868,0,0,1,333.02,771.981Z" transform="translate(-326.51 -764.941)" fill="#2c3a56"/>
        <path id="Path_19" data-name="Path 19" d="M338.662,803.1a.075.075,0,0,1,.068.093c-.118.458-.736,2.6-2.071,2.979-1.122.321-1.509-.281-1.635-.837a1.216,1.216,0,0,1,.279-1.1A4.354,4.354,0,0,1,338.662,803.1Z" transform="translate(-330.249 -784.365)" fill="#2c3a56"/>
        <path id="Path_20" data-name="Path 20" d="M340,763.517a.076.076,0,0,1-.092.07c-.461-.107-2.614-.671-3.03-2-.349-1.114.243-1.515.8-1.656a1.215,1.215,0,0,1,1.107.252A4.353,4.353,0,0,1,340,763.517Z" transform="translate(-331.266 -759.683)" fill="#2c3a56"/>
      </g>
      <path id="Path_21" data-name="Path 21" d="M349.219,761.358a18.453,18.453,0,1,0-18.8,18.8A18.516,18.516,0,0,0,349.219,761.358Zm-23.091,4.5a6.587,6.587,0,0,1,.76,1.04,11.552,11.552,0,0,1,1.481,5.655c-.461,3.386-2.739,3.256-3.97,2.922a2.943,2.943,0,0,1-.792-.286,15.256,15.256,0,0,1,0-26.95,2.98,2.98,0,0,1,.716-.27c.867-.252,2.779-.627,3.8.581,1.35,1.594-.169,6.7-1.294,8.083-.006.008-.013.012-.019.019a6.552,6.552,0,0,1-.684.918,6.211,6.211,0,0,0,0,8.29Zm13.622,8.188,0,.007c-2.876,2.163-5.351,2.5-6.176.537-1.026-3.4.743-7.043.743-7.043h0a6.65,6.65,0,0,1,1.1-1.69,6.211,6.211,0,0,0,0-8.29,6.629,6.629,0,0,1-.986-1.458,15.668,15.668,0,0,1-1.517-5.437c-.221-2.414,1.973-3.481,4.379-2.688a2.971,2.971,0,0,1,.646.252,15.25,15.25,0,0,1,1.818,25.808Z" transform="translate(-312.315 -743.254)" fill="#e0475b"/>
    </g>
  </g>
</svg>
