<?xml version="1.0" encoding="UTF-8" standalone="no"?>
<svg
   xmlns:dc="http://purl.org/dc/elements/1.1/"
   xmlns:cc="http://creativecommons.org/ns#"
   xmlns:rdf="http://www.w3.org/1999/02/22-rdf-syntax-ns#"
   xmlns:svg="http://www.w3.org/2000/svg"
   xmlns="http://www.w3.org/2000/svg"
   xmlns:sodipodi="http://sodipodi.sourceforge.net/DTD/sodipodi-0.dtd"
   xmlns:inkscape="http://www.inkscape.org/namespaces/inkscape"
   height="36.900002"
   width="37.200001"
   version="1.1"
   x="0px"
   y="0px"
   viewBox="0 0 37.200001 36.900002"
   xml:space="preserve"
   id="svg16"
   sodipodi:docname="Naira.svg"
   inkscape:version="1.0 (4035a4fb49, 2020-05-01)"><metadata
     id="metadata22"><rdf:RDF><cc:Work
         rdf:about=""><dc:format>image/svg+xml</dc:format><dc:type
           rdf:resource="http://purl.org/dc/dcmitype/StillImage" /></cc:Work></rdf:RDF></metadata><defs
     id="defs20" /><sodipodi:namedview
     inkscape:document-rotation="0"
     pagecolor="#ffffff"
     bordercolor="#666666"
     borderopacity="1"
     objecttolerance="10"
     gridtolerance="10"
     guidetolerance="10"
     inkscape:pageopacity="0"
     inkscape:pageshadow="2"
     inkscape:window-width="1366"
     inkscape:window-height="705"
     id="namedview18"
     showgrid="false"
     inkscape:zoom="4.304"
     inkscape:cx="17.4"
     inkscape:cy="30"
     inkscape:window-x="-8"
     inkscape:window-y="-8"
     inkscape:window-maximized="1"
     inkscape:current-layer="svg16" /><g
     transform="translate(-32.6,-32.5)"
     id="g4"><path
       d="m 68,56.2 h -2.4 v 10.5 c 0,1.5 -1.2,2.7 -2.7,2.7 H 60.6 L 51.9,56.2 H 41.4 V 67 c 0,1.3 -1,2.3 -2.3,2.3 v 0 c -1.3,0 -2.3,-1 -2.3,-2.3 V 56.2 h -2.4 c -1,0 -1.8,-0.8 -1.8,-1.8 v 0 c 0,-1 0.8,-1.8 1.8,-1.8 h 2.4 v -3.5 h -2.4 c -1,0 -1.8,-0.8 -1.8,-1.8 v 0 c 0,-1 0.8,-1.8 1.8,-1.8 h 2.4 V 35.2 c 0,-1.5 1.2,-2.7 2.7,-2.7 h 2.3 l 8.7,13.2 H 61 V 34.8 c 0,-1.3 1,-2.3 2.3,-2.3 v 0 c 1.3,0 2.3,1 2.3,2.3 V 45.6 H 68 c 1,0 1.8,0.8 1.8,1.8 v 0 c 0,1 -0.8,1.8 -1.8,1.8 h -2.4 v 3.5 H 68 c 1,0 1.8,0.8 1.8,1.8 v 0 c 0,0.9 -0.8,1.7 -1.8,1.7 z M 44.9,45.6 41.3,40.2 v 5.4 z m 4.7,7.1 -2.3,-3.5 h -5.9 v 3.5 z m 11.4,0 v -3.5 h -8.3 l 2.3,3.5 z m 0,8.9 v -5.4 h -3.6 z"
       id="path2" /></g><g
     transform="translate(-32.6,-32.5)"
     id="g10" /></svg>
